<svg width="512" height="512" viewBox="0 0 512 512" fill="none" xmlns="http://www.w3.org/2000/svg">
<g clip-path="url(#clip0_57_699)">
<rect x="25" y="25" width="462" height="462" rx="75" fill="#254FE4"/>
<path d="M228 369.636V142.364C228 125.451 213.166 115 199.143 115H134.857C120.834 115 106 125.451 106 142.364L106 369.636C106 386.549 120.834 397 134.857 397H199.143C213.166 397 228 386.549 228 369.636Z" fill="white" stroke="white" stroke-width="32" stroke-linecap="round" stroke-linejoin="round"/>
<path d="M406 161.545V132.455C406 127.284 403.612 123.592 401.84 121.618C400.151 119.737 398.402 118.669 397.48 118.159C395.615 117.128 393.893 116.638 393.124 116.432C391.333 115.953 389.473 115.69 388.033 115.527C384.942 115.178 381.099 115 377.143 115H312.857C308.901 115 305.058 115.178 301.967 115.527C300.527 115.69 298.667 115.953 296.876 116.432C296.107 116.638 294.385 117.128 292.52 118.159C291.598 118.669 289.849 119.737 288.16 121.618C286.388 123.592 284 127.284 284 132.455V161.545C284 166.716 286.388 170.408 288.16 172.382C289.849 174.263 291.598 175.331 292.52 175.841C294.385 176.872 296.107 177.362 296.876 177.568C298.667 178.047 300.527 178.31 301.967 178.473C305.058 178.822 308.901 179 312.857 179H377.143C381.099 179 384.942 178.822 388.033 178.473C389.473 178.31 391.333 178.047 393.124 177.568C393.893 177.362 395.615 176.872 397.48 175.841C398.402 175.331 400.151 174.263 401.84 172.382C403.612 170.408 406 166.716 406 161.545Z" fill="white" stroke="white" stroke-width="32" stroke-linecap="round" stroke-linejoin="round"/>
<path d="M406 270.545V241.455C406 236.284 403.612 232.592 401.84 230.618C400.151 228.737 398.402 227.669 397.48 227.159C395.615 226.128 393.893 225.638 393.124 225.432C391.333 224.953 389.473 224.69 388.033 224.527C384.942 224.178 381.099 224 377.143 224H312.857C308.901 224 305.058 224.178 301.967 224.527C300.527 224.69 298.667 224.953 296.876 225.432C296.107 225.638 294.385 226.128 292.52 227.159C291.598 227.669 289.849 228.737 288.16 230.618C286.388 232.592 284 236.284 284 241.455V270.545C284 275.716 286.388 279.408 288.16 281.382C289.849 283.263 291.598 284.331 292.52 284.841C294.385 285.872 296.107 286.362 296.876 286.568C298.667 287.047 300.527 287.31 301.967 287.473C305.058 287.822 308.901 288 312.857 288H377.143C381.099 288 384.942 287.822 388.033 287.473C389.473 287.31 391.333 287.047 393.124 286.568C393.893 286.362 395.615 285.872 397.48 284.841C398.402 284.331 400.151 283.263 401.84 281.382C403.612 279.408 406 275.716 406 270.545Z" stroke="white" stroke-width="32" stroke-linecap="round" stroke-linejoin="round"/>
<path d="M406 379.545V350.455C406 345.284 403.612 341.592 401.84 339.618C400.151 337.737 398.402 336.669 397.48 336.159C395.615 335.128 393.893 334.638 393.124 334.432C391.333 333.953 389.473 333.69 388.033 333.527C384.942 333.178 381.099 333 377.143 333H312.857C308.901 333 305.058 333.178 301.967 333.527C300.527 333.69 298.667 333.953 296.876 334.432C296.107 334.638 294.385 335.128 292.52 336.159C291.598 336.669 289.849 337.737 288.16 339.618C286.388 341.592 284 345.284 284 350.455V379.545C284 384.716 286.388 388.408 288.16 390.382C289.849 392.263 291.598 393.331 292.52 393.841C294.385 394.872 296.107 395.362 296.876 395.568C298.667 396.047 300.527 396.31 301.967 396.473C305.058 396.822 308.901 397 312.857 397H377.143C381.099 397 384.942 396.822 388.033 396.473C389.473 396.31 391.333 396.047 393.124 395.568C393.893 395.362 395.615 394.872 397.48 393.841C398.402 393.331 400.151 392.263 401.84 390.382C403.612 388.408 406 384.716 406 379.545Z" stroke="white" stroke-width="32" stroke-linecap="round" stroke-linejoin="round"/>
</g>
<defs>
<clipPath id="clip0_57_699">
<rect x="25" y="25" width="462" height="462" rx="75" fill="white"/>
</clipPath>
</defs>
</svg>
